<svg xmlns="http://www.w3.org/2000/svg" viewBox="0 0 100 150" width="100" height="150">
  <path d="M 30 10 
           C 30 10, 35 15, 35 25
           C 35 35, 30 40, 25 40
           C 20 40, 15 35, 15 30
           C 15 20, 25 10, 35 15
           C 45 20, 50 30, 50 45
           C 50 60, 45 75, 40 85
           C 35 95, 30 105, 28 115
           C 26 125, 25 135, 25 140
           L 30 140
           C 30 135, 31 125, 33 115
           C 35 105, 40 95, 45 85
           C 50 75, 55 65, 55 50
           C 55 35, 50 25, 40 18
           C 35 14, 30 12, 25 15
           C 22 17, 20 20, 20 25
           C 20 30, 23 33, 27 33
           C 30 33, 33 30, 33 27
           C 33 23, 30 20, 30 20"
        fill="#1a1a1a"
        stroke="none"/>
  
  <!-- Two dots characteristic of bass clef -->
  <circle cx="65" cy="55" r="4" fill="#1a1a1a"/>
  <circle cx="65" cy="70" r="4" fill="#1a1a1a"/>
</svg>
